<?xml version="1.0" standalone="no"?>
<!DOCTYPE svg PUBLIC "-//W3C//DTD SVG 20010904//EN"
 "http://www.w3.org/TR/2001/REC-SVG-20010904/DTD/svg10.dtd">
<svg version="1.0" xmlns="http://www.w3.org/2000/svg"
 width="500.000000pt" height="500.000000pt" viewBox="0 0 500.000000 500.000000"
 preserveAspectRatio="xMidYMid meet">

<g transform="translate(0.000000,500.000000) scale(0.100000,-0.100000)"
fill="#000000" stroke="none">
<path d="M0 2500 l0 -2500 2500 0 2500 0 0 2500 0 2500 -2500 0 -2500 0 0
-2500z m1881 730 c104 -272 189 -498 189 -503 0 -4 -82 -6 -182 -5 l-183 3
-145 374 -145 375 -3 -377 -2 -377 -44 0 -45 0 -3 393 c-3 336 -5 397 -19 428
-31 67 -81 92 -214 106 l-70 8 -3 35 -3 36 342 -1 342 0 188 -495z m2117 463
l-3 -38 -70 -8 c-133 -14 -183 -39 -214 -106 -13 -31 -16 -93 -19 -428 l-3
-393 -175 0 -174 0 -2 378 -3 377 -140 -375 -140 -375 -44 -3 c-41 -3 -43 -2
-38 20 3 13 86 238 184 500 l178 477 210 3 c116 2 265 4 333 6 l123 2 -3 -37z
m-1912 -1148 c14 -30 23 -61 21 -68 -4 -11 -57 93 -57 113 0 22 13 7 36 -45z
m79 -10 c0 -45 -4 -65 -12 -65 -14 0 -19 111 -6 123 15 15 18 4 18 -58z m169
-3 c17 -43 21 -62 12 -62 -11 0 -46 90 -46 120 0 22 9 7 34 -58z m128 3 c2
-47 0 -65 -9 -65 -9 0 -13 20 -13 65 0 84 17 84 22 0z m158 0 c0 -45 -4 -65
-12 -65 -10 0 -12 18 -10 65 5 84 22 84 22 0z m120 -6 c0 -40 -4 -59 -12 -59
-10 0 -12 18 -10 65 5 81 22 76 22 -6z m208 1 c15 -43 18 -60 9 -60 -7 0 -19
21 -27 48 -8 26 -16 53 -18 60 -2 6 0 12 5 12 5 0 19 -27 31 -60z m-1536 -732
c3 -443 5 -486 22 -525 36 -83 112 -125 252 -139 l64 -7 0 -36 0 -36 -370 0
-371 0 3 34 3 35 79 13 c140 24 195 71 215 186 7 40 11 230 11 510 l0 447 44
0 45 0 3 -482z m967 120 c75 -196 138 -359 141 -362 3 -3 66 157 140 355 74
199 139 363 146 366 7 2 28 3 47 1 l35 -3 -224 -600 c-123 -330 -228 -610
-233 -623 -8 -15 -19 -22 -39 -22 -29 0 -29 0 -267 613 -130 336 -240 618
-242 625 -4 10 33 12 178 10 l182 -3 136 -357z m1313 -135 l3 -498 25 -49 c31
-63 67 -82 185 -99 l90 -12 3 -35 3 -35 -486 0 -485 0 0 35 0 36 92 12 c130
18 176 50 200 138 6 23 12 230 15 522 l5 482 173 0 174 0 3 -497z"/>
</g>
</svg>
